# xmcd
#
# Track frame offsets:
#	150
#	16250
#	31556
#	49751
#	65903
#	82855
#	94970
#	111706
#	130103
#	143940
#	161377
#	177213
#	192930
#	207269
#	222017
#	237466
#	253161
#	267381
#	281025
#
# Disc length: 3918 seconds
#
# Revision: 2
# Processed by: cddbd v1.5.2PL0 Copyright (c) Steve Scherf et al.
# Submitted via: audiograbber 1.83.01
#
DISCID=190f4c13
DTITLE=Various Artist - Promo Only Country Radio - July 2008
DYEAR=2008
DGENRE=Country
TTITLE0=Zac Brown Band - Chicken Fried
TTITLE1=James Otto - For You
TTITLE2=Taylor Swift - Should've Said No
TTITLE3=Crossin Dixon - I Love My Old Bird Dog (& I Love You)
TTITLE4=Craig Morgan - Love Remembers
TTITLE5=Marcel - I Love This Song
TTITLE6=Lance Miller - Old Back In The New School
TTITLE7=Kellier Pickler - Didn't You Know Much I Loved You
TTITLE8=Chris Young - Voices
TTITLE9=Cowboy Crush - Tougher Than A Man
TTITLE10=Eli Young Band - When It Rains
TTITLE11=Laura Bryna - Life Is Good
TTITLE12=Randy Houser - Anything Goes
TTITLE13=Angel Band - I'll Sing This Song For You
TTITLE14=Wild Horses - Surrounded
TTITLE15=The Boxmasters - The Poor House
TTITLE16=Becky Schlegel - Bound For Tennessee
TTITLE17=The Watson Twins - How Am I To Be
TTITLE18=Dr. John and the Lower 911 f. Eric Clapton - Time For A Change
EXTD=
EXTT0=
EXTT1=
EXTT2=
EXTT3=
EXTT4=
EXTT5=
EXTT6=
EXTT7=
EXTT8=
EXTT9=
EXTT10=
EXTT11=
EXTT12=
EXTT13=
EXTT14=
EXTT15=
EXTT16=
EXTT17=
EXTT18=
PLAYORDER=
